<svg xmlns="http://www.w3.org/2000/svg" viewBox="0 0 496.152 496.152" style="enable-background:new 0 0 496.152 496.152" xml:space="preserve" fill="#ffffff"><path d="M392.665 280.164c3.877 5.304 7.106 10.722 8.811 16.31H377.45c-10.624 9.102-19.742 11.843-29.151 11.843-9.375 0-18.671-2.773-29.411-11.843h-63.216v-70.881c4.671.211 9.118.924 13.69 1.346-16.336-29.572-37.1-72.869-43.62-101.144-.228-.974-.309-1.947-.519-2.92-95.435 8.401-170.544 88.66-170.544 186.221 0 103.139 83.917 187.057 187.073 187.057 103.141 0 187.04-83.918 187.04-187.057v-.025c0-22.897-4.349-44.757-11.905-65.051-9.101 15.282-17.051 27.083-24.222 36.144zM173.116 162.765c-10.413 14.284-19.158 31.844-25.857 51.829-20.001 6.708-37.57 15.468-51.86 25.897 16.057-34.106 43.619-61.668 77.717-77.726zm-33.953 82.05c-3.372 16.238-5.481 33.539-6.162 51.658H82.079c6.262-20.446 27.204-38.737 57.084-51.658zm-57.084 76.901h50.922c.681 18.112 2.79 35.413 6.162 51.651-29.865-12.921-50.807-31.203-57.084-51.651zm13.319 55.974c14.275 10.439 31.859 19.198 51.844 25.906 6.716 19.985 15.461 37.547 25.874 51.829-34.098-16.059-61.66-43.62-77.718-77.735zm135.032 91.485c-20.977-5.752-39.761-26.978-52.95-57.483 16.628 3.455 34.358 5.572 52.95 6.189v51.294zm0-76.52c-22.387-.852-43.669-4.137-62.811-9.417-5.193-18.785-8.47-39.615-9.396-61.523h72.206v70.94zm0-96.181h-72.206c.926-21.916 4.202-42.744 9.396-61.529 19.142-5.28 40.424-8.565 62.811-9.417v70.946zm0-96.171c-18.592.623-36.322 2.741-52.95 6.188 13.189-30.498 31.991-51.725 52.95-57.475v51.287zm25.241 121.413h69.608c-.924 21.948-4.218 42.818-9.409 61.628-18.639 5.125-38.964 8.29-60.199 9.246v-70.874zm0 147.459v-51.352c17.406-.73 34.309-2.838 50.385-6.195-12.653 29.271-30.449 50.79-50.385 57.547zm54.717-13.756c10.447-14.325 19.222-31.941 25.923-51.992 12.49-4.21 24.268-9.182 34.895-15.063 6.212-3.439 11.776-7.154 17.03-10.998-16.026 34.262-43.636 61.935-77.848 78.053zm48.6-89.142c-4.64 2.563-9.57 4.9-14.648 7.114 3.375-16.247 5.482-33.547 6.165-51.676h50.952c-5.012 16.386-19.547 31.886-42.469 44.562z"/><path d="M348.298 0c-66.51 0-104.259 57.354-90.192 118.324 10.024 43.418 70.531 156.769 90.192 156.769 18.381 0 80.024-113.384 90.194-156.769C452.672 57.953 415.23 0 348.298 0zm1.054 116.832c-19.497 0-35.297-15.801-35.297-35.3s15.8-35.299 35.297-35.299c19.501 0 35.299 15.8 35.299 35.299s-15.798 35.3-35.299 35.3z"/></svg>